<?xml version="1.0" encoding="utf-8"?>
<!-- Generator: Adobe Illustrator 27.1.1, SVG Export Plug-In . SVG Version: 6.00 Build 0)  -->
<svg version="1.1" xmlns="http://www.w3.org/2000/svg" xmlns:xlink="http://www.w3.org/1999/xlink" x="0px" y="0px"
	 viewBox="0 0 903.56 197.55" style="enable-background:new 0 0 903.56 197.55;" xml:space="preserve">
<g id="text">
	<path d="M212.11,60.05c0-14.98,8.54-23.38,21.14-23.38c12.6,0,21.14,8.47,21.14,23.38c0,14.98-8.54,23.8-21.14,23.8
		C220.65,83.85,212.11,75.03,212.11,60.05z M219.82,28.96c0-3.08,2.24-5.46,5.46-5.46s5.46,2.38,5.46,5.46
		c0,3.08-2.24,5.46-5.46,5.46S219.82,32.05,219.82,28.96z M242.08,60.05c0-8.26-3.36-13.02-8.82-13.02c-5.46,0-8.82,4.76-8.82,13.02
		c0,8.26,3.36,13.44,8.82,13.44C238.72,73.49,242.08,68.31,242.08,60.05z M235.78,28.96c0-3.08,2.24-5.46,5.46-5.46
		c3.22,0,5.46,2.38,5.46,5.46c0,3.08-2.24,5.46-5.46,5.46C238.02,34.43,235.78,32.05,235.78,28.96z"/>
	<path d="M259.01,48.43l5.32-0.42h40.18v9.38h-45.5V48.43z M263.63,47.59c0-7.14,3.78-13.44,14.14-13.44c3.22,0,6.02,0.63,7.56,1.26
		l-2.1,8.82c-0.98-0.42-1.96-0.7-3.92-0.7s-3.64,1.12-3.64,3.92v35.56h-12.04V47.59z M286.6,47.59c0-7.49,3.5-14.14,13.86-14.14
		c3.22,0,5.88,0.7,7.42,1.26l-2.1,8.82c-1.12-0.42-2.38-0.7-3.5-0.7c-2.24,0-3.64,1.05-3.64,4.34v35.84H286.6V47.59z"/>
	<path d="M307.17,65.51c0-11.34,8.26-18.34,16.8-18.34c10.36,0,15.26,7.56,15.26,16.94c0,2.1-0.28,4.2-0.49,5.04h-19.95
		c1.12,4.2,4.2,5.6,8.12,5.6c2.38,0,4.62-0.7,7.14-2.1l3.92,7.14c-3.78,2.66-8.82,4.06-12.74,4.06
		C315.01,83.85,307.17,77.13,307.17,65.51z M329.01,61.31c0-2.66-1.12-5.04-4.76-5.04c-2.66,0-4.9,1.54-5.6,5.04H329.01z"/>
	<path d="M345.81,48.01h9.8l0.84,4.2h0.28c2.8-2.66,6.3-5.04,11.06-5.04c7.7,0,10.92,5.6,10.92,14.28v21.56h-12.04V62.99
		c0-4.48-1.12-5.6-3.5-5.6c-2.24,0-3.5,0.98-5.32,2.66v22.96h-12.04V48.01z"/>
	<path d="M388.09,69.57V57.39h-4.62v-8.96l5.32-0.42l1.4-9.1h9.94v9.1h7.98v9.38h-7.98v11.97c0,3.85,1.96,5.11,4.2,5.11
		c1.12,0,2.24-0.28,3.08-0.56l1.82,8.68c-1.82,0.56-4.41,1.26-8.26,1.26C391.87,83.85,388.09,78.11,388.09,69.57z"/>
	<path d="M414.55,70.69v-36.4h12.04v36.82c0,2.38,1.12,3.08,1.96,3.08c0.42,0,0.7,0,1.26-0.14l1.4,8.82
		c-1.26,0.56-3.22,0.98-5.88,0.98C417.21,83.85,414.55,78.53,414.55,70.69z"/>
	<path d="M434.71,37.64c0-3.5,2.8-6.02,6.72-6.02s6.72,2.52,6.72,6.02c0,3.5-2.8,6.02-6.72,6.02S434.71,41.15,434.71,37.64z
		 M435.41,48.01h12.04v35h-12.04V48.01z"/>
	<path d="M455.15,65.51c0-11.62,8.82-18.34,18.76-18.34c4.2,0,7.56,1.4,10.22,3.64l-5.6,7.7c-1.54-1.26-2.66-1.68-3.92-1.68
		c-4.48,0-7.14,3.36-7.14,8.68s2.94,8.68,6.72,8.68c1.96,0,3.92-0.98,5.6-2.24l4.62,7.84c-3.5,3.08-7.98,4.06-11.62,4.06
		C462.85,83.85,455.15,77.13,455.15,65.51z"/>
	<path d="M490.01,34.29h12.04v11.34l-0.56,6.02c2.38-2.1,5.74-4.48,10.5-4.48c7.7,0,10.92,5.6,10.92,14.28v21.56h-12.04V62.99
		c0-4.48-1.12-5.6-3.5-5.6c-2.24,0-3.5,0.98-5.32,2.66v22.96h-12.04V34.29z"/>
	<path d="M528.93,65.51c0-11.34,8.26-18.34,16.8-18.34c10.36,0,15.26,7.56,15.26,16.94c0,2.1-0.28,4.2-0.49,5.04h-19.95
		c1.12,4.2,4.2,5.6,8.12,5.6c2.38,0,4.62-0.7,7.14-2.1l3.92,7.14c-3.78,2.66-8.82,4.06-12.74,4.06
		C536.77,83.85,528.93,77.13,528.93,65.51z M550.77,61.31c0-2.66-1.12-5.04-4.76-5.04c-2.66,0-4.9,1.54-5.6,5.04H550.77z"/>
	<path d="M582.55,37.51h16.38c9.52,0,17.22,2.38,17.22,11.34c0,3.92-2.24,8.4-5.74,9.8v0.28c4.34,1.26,7.84,4.62,7.84,10.64
		c0,9.38-8.12,13.44-17.92,13.44h-17.78V37.51z M598.65,55.29c3.92,0,5.74-1.82,5.74-4.62c0-2.8-1.82-3.92-5.74-3.92h-4.06v8.54
		H598.65z M599.49,73.77c4.76,0,7-1.68,7-5.04s-2.24-4.62-7-4.62h-4.9v9.66H599.49z"/>
	<path d="M623.71,37.64c0-3.5,2.8-6.02,6.72-6.02s6.72,2.52,6.72,6.02c0,3.5-2.8,6.02-6.72,6.02S623.71,41.15,623.71,37.64z
		 M624.41,48.01h12.04v35h-12.04V48.01z"/>
	<path d="M655.21,79.23h-0.28l-0.98,3.78h-9.38V34.29h12.04v11.34l-0.28,5.04c2.45-2.24,5.53-3.5,8.61-3.5
		c8.26,0,13.65,7,13.65,17.71c0,12.11-7.14,18.97-14.56,18.97C660.95,83.85,657.87,82.31,655.21,79.23z M666.27,65.09
		c0-5.74-1.68-8.12-4.9-8.12c-1.82,0-3.22,0.7-4.76,2.52v12.88c1.4,1.26,2.94,1.68,4.48,1.68
		C663.89,74.05,666.27,71.81,666.27,65.09z"/>
	<path d="M684.47,70.69v-36.4h12.04v36.82c0,2.38,1.12,3.08,1.96,3.08c0.42,0,0.7,0,1.26-0.14l1.4,8.82
		c-1.26,0.56-3.22,0.98-5.88,0.98C687.13,83.85,684.47,78.53,684.47,70.69z"/>
	<path d="M704.62,37.64c0-3.5,2.8-6.02,6.72-6.02s6.72,2.52,6.72,6.02c0,3.5-2.8,6.02-6.72,6.02S704.62,41.15,704.62,37.64z
		 M705.32,48.01h12.04v35h-12.04V48.01z"/>
	<path d="M723.66,65.51c0-11.62,8.4-18.34,17.36-18.34s17.36,6.72,17.36,18.34s-8.4,18.34-17.36,18.34S723.66,77.13,723.66,65.51z
		 M746.07,65.51c0-5.32-1.4-8.68-5.04-8.68c-3.64,0-5.04,3.36-5.04,8.68s1.4,8.68,5.04,8.68C744.67,74.19,746.07,70.83,746.07,65.51
		z"/>
	<path d="M764.12,69.57V57.39h-4.62v-8.96l5.32-0.42l1.4-9.1h9.94v9.1h7.98v9.38h-7.98v11.97c0,3.85,1.96,5.11,4.2,5.11
		c1.12,0,2.24-0.28,3.08-0.56l1.82,8.68c-1.82,0.56-4.41,1.26-8.26,1.26C767.9,83.85,764.12,78.11,764.12,69.57z"/>
	<path d="M790.58,34.29h12.04v11.34l-0.56,6.02c2.38-2.1,5.74-4.48,10.5-4.48c7.7,0,10.92,5.6,10.92,14.28v21.56h-12.04V62.99
		c0-4.48-1.12-5.6-3.5-5.6c-2.24,0-3.5,0.98-5.32,2.66v22.96h-12.04V34.29z"/>
	<path d="M829.5,65.51c0-11.34,8.26-18.34,16.8-18.34c10.36,0,15.26,7.56,15.26,16.94c0,2.1-0.28,4.2-0.49,5.04h-19.95
		c1.12,4.2,4.2,5.6,8.12,5.6c2.38,0,4.62-0.7,7.14-2.1l3.92,7.14c-3.78,2.66-8.82,4.06-12.74,4.06
		C837.34,83.85,829.5,77.13,829.5,65.51z M851.34,61.31c0-2.66-1.12-5.04-4.76-5.04c-2.66,0-4.9,1.54-5.6,5.04H851.34z"/>
	<path d="M868.14,34.29h11.76v25.9h0.28l9.66-12.18h13.02L890.4,62.57l13.16,20.44h-13.02l-7-12.46l-3.64,4.06v8.4h-11.76V34.29z"/>
	<path d="M211.55,149.51c0-11.48,7.14-18.34,14.28-18.34c3.78,0,6.02,1.4,8.12,3.5l-0.42-5.04v-11.34h12.04v48.72h-9.8l-0.84-3.22
		h-0.28c-2.38,2.38-5.74,4.06-8.82,4.06C217.15,167.85,211.55,160.85,211.55,149.51z M233.54,155.53v-12.88
		c-1.4-1.26-3.22-1.68-4.76-1.68c-2.52,0-4.9,2.24-4.9,8.4c0,6.3,1.96,8.68,5.18,8.68C230.88,158.05,232.28,157.49,233.54,155.53z"
		/>
	<path d="M251.87,149.51c0-11.34,8.26-18.34,16.8-18.34c10.36,0,15.26,7.56,15.26,16.94c0,2.1-0.28,4.2-0.49,5.04h-19.95
		c1.12,4.2,4.2,5.6,8.12,5.6c2.38,0,4.62-0.7,7.14-2.1l3.92,7.14c-3.78,2.66-8.82,4.06-12.74,4.06
		C259.71,167.85,251.87,161.13,251.87,149.51z M273.72,145.31c0-2.66-1.12-5.04-4.76-5.04c-2.66,0-4.9,1.54-5.6,5.04H273.72z"/>
	<path d="M290.51,132.01h9.8l0.84,6.02h0.28c2.59-4.76,6.51-6.86,9.94-6.86c2.17,0,3.36,0.28,4.34,0.7l-1.96,10.36
		c-1.26-0.28-2.38-0.56-3.92-0.56c-2.52,0-5.6,1.54-7.28,5.88v19.46h-12.04V132.01z"/>
	<path d="M334.75,121.51h16.66c9.94,0,18.48,3.64,18.48,15.12c0,11.13-8.68,15.96-18.2,15.96h-4.9v14.42h-12.04V121.51z
		 M351.13,143.07c4.76,0,7-2.38,7-6.44s-2.66-5.6-7.28-5.6h-4.06v12.04H351.13z"/>
	<path d="M373.81,132.43l5.32-0.42h17.22v9.38h-22.54V132.43z M378.43,131.59c0-7.49,3.5-14.14,13.86-14.14
		c3.22,0,5.88,0.7,7.42,1.26l-2.1,8.82c-1.12-0.42-2.38-0.7-3.5-0.7c-2.24,0-3.64,1.05-3.64,4.34v35.84h-12.04V131.59z"/>
	<path d="M398.73,157.07c0-7.28,5.6-11.34,19.04-12.74c-0.28-2.52-1.82-3.64-4.9-3.64c-2.52,0-5.18,0.98-8.82,2.94l-4.2-7.84
		c4.9-2.94,9.94-4.62,15.4-4.62c9.1,0,14.56,4.9,14.56,16.38v19.46h-9.8l-0.84-3.36h-0.28c-2.8,2.52-5.88,4.2-9.66,4.2
		C402.65,167.85,398.73,162.81,398.73,157.07z M417.77,156.23v-4.76c-5.74,0.84-7.56,2.66-7.56,4.62c0,1.61,1.12,2.52,3.22,2.52
		C415.39,158.61,416.51,157.63,417.77,156.23z"/>
	<path d="M437.65,132.01h9.8l0.84,6.02h0.28c2.59-4.76,6.51-6.86,9.94-6.86c2.17,0,3.36,0.28,4.34,0.7l-1.96,10.36
		c-1.26-0.28-2.38-0.56-3.92-0.56c-2.52,0-5.6,1.54-7.28,5.88v19.46h-12.04V132.01z"/>
	<path d="M466.91,132.01h9.8l0.84,6.02h0.28c2.59-4.76,6.51-6.86,9.94-6.86c2.17,0,3.36,0.28,4.34,0.7l-1.96,10.36
		c-1.26-0.28-2.38-0.56-3.92-0.56c-2.52,0-5.6,1.54-7.28,5.88v19.46h-12.04V132.01z"/>
	<path d="M493.65,149.51c0-11.34,8.26-18.34,16.8-18.34c10.36,0,15.26,7.56,15.26,16.94c0,2.1-0.28,4.2-0.49,5.04h-19.95
		c1.12,4.2,4.2,5.6,8.12,5.6c2.38,0,4.62-0.7,7.14-2.1l3.92,7.14c-3.78,2.66-8.82,4.06-12.74,4.06
		C501.49,167.85,493.65,161.13,493.65,149.51z M515.49,145.31c0-2.66-1.12-5.04-4.76-5.04c-2.66,0-4.9,1.54-5.6,5.04H515.49z"/>
	<path d="M555.39,121.51h14.56l13.86,45.5h-12.74l-5.18-22.12c-1.12-4.34-2.24-9.87-3.36-14.42h-0.28
		c-0.98,4.62-2.1,10.08-3.22,14.42l-5.18,22.12h-12.32L555.39,121.51z M551.47,148.04h22.26v9.31h-22.26V148.04z"/>
	<path d="M585.07,162.95l5.32-7.42c3.22,2.38,6.09,3.5,8.54,3.5c2.52,0,3.5-0.7,3.5-2.1c0-1.82-3.22-2.66-6.72-4.06
		c-4.06-1.61-8.82-4.62-8.82-10.36c0-6.86,5.6-11.34,13.86-11.34c5.74,0,9.8,2.31,12.88,4.62l-5.32,7.14
		c-2.52-1.82-4.97-2.94-7.14-2.94c-2.03,0-3.08,0.56-3.08,1.96c0,1.82,3.08,2.52,6.58,3.78c4.2,1.54,8.96,4.2,8.96,10.5
		c0,6.58-5.18,11.62-14.98,11.62C594.17,167.85,588.71,165.89,585.07,162.95z"/>
	<path d="M619.65,153.57v-12.18h-4.62v-8.96l5.32-0.42l1.4-9.1h9.94v9.1h7.98v9.38h-7.98v11.97c0,3.85,1.96,5.11,4.2,5.11
		c1.12,0,2.24-0.28,3.08-0.56l1.82,8.68c-1.82,0.56-4.41,1.26-8.26,1.26C623.43,167.85,619.65,162.11,619.65,153.57z"/>
	<path d="M642.89,149.51c0-11.34,8.26-18.34,16.8-18.34c10.36,0,15.26,7.56,15.26,16.94c0,2.1-0.28,4.2-0.49,5.04h-19.95
		c1.12,4.2,4.2,5.6,8.12,5.6c2.38,0,4.62-0.7,7.14-2.1l3.92,7.14c-3.78,2.66-8.82,4.06-12.74,4.06
		C650.73,167.85,642.89,161.13,642.89,149.51z M664.73,145.31c0-2.66-1.12-5.04-4.76-5.04c-2.66,0-4.9,1.54-5.6,5.04H664.73z"/>
	<path d="M681.53,132.01h9.8l0.84,4.2h0.28c2.8-2.66,6.3-5.04,11.06-5.04c7.7,0,10.92,5.6,10.92,14.28v21.56h-12.04v-20.02
		c0-4.48-1.12-5.6-3.5-5.6c-2.24,0-3.5,0.98-5.32,2.66v22.96h-12.04V132.01z"/>
</g>
<g id="abook">
	<path d="M137.51,167.32c1.36,0,2.37-0.41,2.97-1.67c0-21.05,0-42.1,0-63.16c-0.57-0.88-1.23-1.59-2.41-1.54
		c-0.63,0.03-1.26,0-1.89,0c-1.42,0-2.84,0-4.32,0c0-1.48,0-2.81,0-4.14c0-1.8-0.35-2.34-2.02-3.01c-6.26-2.51-12.76-3.3-19.44-2.57
		c-2.95,0.32-5.79,0.92-8.56,1.74c-5.08,1.52-9.85,3.85-14.32,6.93c-0.61,0.42-0.98,0.36-1.54-0.03c-4.22-2.92-8.76-5.18-13.64-6.7
		c-0.55-0.17-1.09-0.34-1.64-0.49c-9.2-2.51-18.3-2.39-27.24,1.2c-1.23,0.49-1.82,1.32-1.79,2.64c0.03,1.43,0.01,2.85,0.01,4.41
		c-1.97,0-3.85-0.01-5.73,0c-2.17,0.01-2.89,0.73-2.89,2.9c0,20.14,0,40.29,0,60.43c0,2.27,0.74,3.01,3.01,3.01
		c5.66,0,11.32,0,16.98,0c22.69,0,45.39,0,68.08,0.01C126.58,167.32,132.04,167.32,137.51,167.32z M37.57,162.71
		c0-19.07,0-38.1,0-57.24c1.39,0,2.67,0,4.1,0c0,0.44,0,0.85,0,1.25c0,16.68,0,33.36,0,50.04c0,0.31,0,0.63,0,0.94
		c0.04,2.01,1.47,3.01,3.33,2.28c11.48-4.53,22.53-2.96,33.3,2.38c0.12,0.06,0.22,0.15,0.52,0.35
		C64.95,162.71,51.29,162.71,37.57,162.71z M84.45,160.66c-11.97-7.18-24.53-9.93-38.25-5.96c-0.02-0.38-0.05-0.74-0.05-1.1
		c0-18.28,0.01-36.56-0.03-54.84c0-0.92,0.34-1.26,1.14-1.51c8.75-2.79,17.36-2.16,25.88,0.96c3.79,1.39,7.33,3.28,10.62,5.61
		c0.36,0.25,0.71,0.81,0.71,1.22c0.03,18.35,0.03,36.7,0.03,55.05C84.5,160.22,84.48,160.36,84.45,160.66z M89,105.4
		c0-0.77,0.19-1.26,0.86-1.72c8.42-5.68,17.6-8.83,27.84-8.06c3,0.23,5.94,1.15,8.91,1.75c0.65,0.13,0.77,0.53,0.77,1.13
		c-0.01,18.46-0.01,36.93-0.01,55.39c0,0.24-0.04,0.47-0.06,0.8c-13.72-3.98-26.28-1.21-38.29,6c0-0.52,0-0.89,0-1.26
		C89.01,141.42,89.02,123.41,89,105.4z M94.85,162.54c1.11-0.52,2.2-1.09,3.33-1.57c9.19-3.9,18.57-4.94,28.2-1.8
		c0.8,0.26,1.56,0.6,2.35,0.88c1.59,0.56,3-0.38,3.11-2.06c0.02-0.35,0.01-0.7,0.01-1.05c0-16.71,0-33.42,0-50.14
		c0-0.41,0-0.83,0-1.35c1.43,0,2.72,0,4.08,0c0,19.1,0,38.16,0,57.29c-13.7,0-27.35,0-41,0C94.91,162.68,94.88,162.61,94.85,162.54z
		"/>
	<path d="M33.05,164.29c0-20.14,0-40.29,0-60.43c0-2.17,0.72-2.89,2.89-2.9c1.88-0.01,3.76,0,5.73,0c0-1.56,0.02-2.99-0.01-4.41
		c-0.03-1.32,0.56-2.15,1.79-2.64c8.94-3.59,18.04-3.71,27.24-1.2c0.55,0.15,1.1,0.32,1.64,0.49c4.91-18.3,9.63-38.94,13.93-57.74
		h1.2c4.74,18.51,9.48,39.25,14.38,57.54c2.76-0.83,5.61-1.42,8.56-1.74c6.68-0.73,13.18,0.06,19.44,2.57
		c1.67,0.67,2.01,1.21,2.02,3.01c0,1.33,0,2.65,0,4.14c1.48,0,2.9,0,4.32,0c0.63,0,1.26,0.03,1.89,0c1.18-0.05,1.84,0.66,2.41,1.54
		c0,21.05,0,42.1,0,63.16c-0.59,1.26-1.6,1.67-2.97,1.67c-5.46,0-10.93,0-16.39,0l7.81,30.23h46.78L114.3,2.02H61.41L0,197.55h45.19
		l7.84-30.24c-5.66,0-11.32,0-16.98,0C33.79,167.3,33.05,166.56,33.05,164.29z"/>
</g>
</svg>
