<?xml version="1.0" encoding="UTF-8" standalone="no"?>
<!DOCTYPE svg PUBLIC "-//W3C//DTD SVG 1.0//EN" "http://www.w3.org/TR/2001/REC-SVG-20010904/DTD/svg10.dtd">
<!-- Created with Inkscape (http://www.inkscape.org/) -->
<svg
   xmlns:svg="http://www.w3.org/2000/svg"
   xmlns="http://www.w3.org/2000/svg"
   version="1.0"
   width="800"
   height="500"
   id="svg2">
  <defs
     id="defs4" />
  <g
     id="layer1">
    <path
       d="M 44.656626,40.637557 C 39.150757,40.817646 33.466715,42.13576 30.683003,44.78972 C 27.309301,48.006151 29.748703,189.80888 27.169635,194.18772 L 184.39286,194.18772 C 192.2789,196.18985 203.56494,199.5971 209.14613,204.32857 C 214.48425,208.93921 218.30063,215.10815 220.48472,222.93345 C 222.66838,230.75922 223.75831,244.20934 223.75854,263.25735 L 223.75854,340.39175 C 223.75831,359.80401 222.68754,373.27332 220.56457,380.79548 C 218.44114,388.31772 214.76221,394.35238 209.54538,398.84142 C 203.84286,403.69446 196.9516,407.15931 188.94427,409.22182 C 180.93655,411.28439 167.42886,412.33594 148.38083,412.33594 L 131.61249,412.33594 C 112.56415,412.33594 99.094872,411.28441 91.208753,409.22182 C 83.322481,407.15928 76.549449,403.69449 70.847188,398.84142 C 65.508785,394.23103 61.772248,388.10047 59.588441,380.39623 C 57.404506,372.69204 56.314569,359.31871 56.31462,340.39175 L 56.31462,263.65659 C 56.314569,247.99938 57.075297,236.20159 58.5504,228.12366 L 27.169635,228.12366 C 25.938577,236.46245 25.333102,245.69413 25.333102,255.83136 L 25.333102,347.73788 C 25.333076,382.43723 32.496029,406.57269 46.812557,420.16117 C 61.128982,433.74968 86.549312,440.52274 123.06861,440.52274 L 157.32395,440.52274 C 193.7216,440.52271 219.12279,433.74973 233.50015,420.16117 C 247.87706,406.57264 255.05925,382.43723 255.05946,347.73788 L 255.05946,255.83136 C 255.05923,220.88965 247.95377,196.63598 233.81955,183.16852 C 219.68483,169.70158 194.20691,162.96693 157.32395,162.96665 L 58.5504,162.96665 L 58.5504,44.78972 C 58.5504,42.388441 53.144361,40.795518 46.972255,40.637557 C 46.200745,40.617806 45.443186,40.611827 44.656626,40.637557 z M 279.57319,166.24047 L 378.74598,437.24892 L 417.55273,437.24892 L 516.72553,166.24047 L 484.86567,166.24047 L 398.06951,409.22182 L 311.59275,166.24047 L 279.57319,166.24047 z"
       id="path4300"
       style="font-size:145.86625671px;font-style:normal;font-variant:normal;font-weight:normal;font-stretch:normal;text-align:start;line-height:100%;writing-mode:lr-tb;text-anchor:start;fill:#000000;fill-opacity:1;stroke:none;stroke-width:1px;stroke-linecap:butt;stroke-linejoin:miter;stroke-opacity:1;font-family:Square721 BT;-inkscape-font-specification:Square721 BT" />
    <path
       d="M 643.60401,162.96486 C 607.08473,162.96514 581.66438,169.83721 567.34795,183.48612 C 553.03142,197.13557 545.8685,221.25182 545.8685,255.82957 L 545.8685,347.73609 C 545.86847,382.43544 553.03142,406.5709 567.34795,420.15938 C 581.66438,433.74792 607.08476,440.52095 643.60401,440.52095 L 677.7795,440.52095 C 714.17715,440.52095 739.57837,433.74794 753.95571,420.15938 C 768.33261,406.57088 775.51475,382.43544 775.51501,347.73609 L 775.51501,255.82957 C 775.51475,220.88786 768.48922,196.6342 754.35495,183.16673 C 743.33026,172.66291 725.33354,166.31449 700.45669,164.0029 L 682.73015,191.31135 C 694.70128,191.70794 703.66311,192.70965 709.47966,194.18593 C 717.36568,196.18806 724.10031,199.59531 729.68153,204.32678 C 735.01967,208.93742 738.75621,215.10636 740.94027,222.93167 C 743.12393,230.75743 744.21386,244.20755 744.21409,263.25556 L 744.21409,340.38996 C 744.21386,359.80222 743.14314,373.27153 741.02012,380.79369 C 738.8967,388.31595 735.21773,394.35059 730.00092,398.83963 C 724.29838,403.6927 717.48697,407.15752 709.47966,409.22003 C 701.47197,411.28262 687.88441,412.33415 668.83638,412.33415 L 652.14788,412.33415 C 633.09955,412.33418 619.63024,411.28262 611.74415,409.22003 C 603.85788,407.15752 597.08487,403.6927 591.38258,398.83963 C 586.04418,394.22927 582.22779,388.09869 580.04399,380.39444 C 577.86005,372.69028 576.77009,359.31692 576.77017,340.38996 L 576.77017,263.65481 C 576.77012,244.6068 577.86005,231.15668 580.04399,223.33091 C 582.22779,215.50561 586.04421,209.25682 591.38258,204.64618 C 597.08484,199.79339 603.85785,196.32857 611.74415,194.26578 C 618.30012,192.55133 628.93395,191.52558 643.20476,191.2315 L 661.49025,162.96486 L 643.60401,162.96486 z"
       id="path4298"
       style="font-size:145.86625671px;font-style:normal;font-variant:normal;font-weight:normal;font-stretch:normal;text-align:start;line-height:100%;writing-mode:lr-tb;text-anchor:start;fill:#8b0017;fill-opacity:1;stroke:none;stroke-width:1px;stroke-linecap:butt;stroke-linejoin:miter;stroke-opacity:1;font-family:Square721 BT;-inkscape-font-specification:Square721 BT" />
  </g>
</svg>
